<svg id="visual" viewBox="0 0 900 600" width="900" height="1000" xmlns="http://www.w3.org/2000/svg" xmlns:xlink="http://www.w3.org/1999/xlink" version="1.1"><path d="M0 211L10.7 207C21.3 203 42.7 195 64.2 192C85.7 189 107.3 191 128.8 184C150.3 177 171.7 161 193 157C214.3 153 235.7 161 257 164C278.3 167 299.7 165 321.2 169C342.7 173 364.3 183 385.8 185C407.3 187 428.7 181 450 181C471.3 181 492.7 187 514.2 181C535.7 175 557.3 157 578.8 154C600.3 151 621.7 163 643 166C664.3 169 685.7 163 707 165C728.3 167 749.7 177 771.2 179C792.7 181 814.3 175 835.8 176C857.3 177 878.7 185 889.3 189L900 193L900 0L889.3 0C878.7 0 857.3 0 835.8 0C814.3 0 792.7 0 771.2 0C749.7 0 728.3 0 707 0C685.7 0 664.3 0 643 0C621.7 0 600.3 0 578.8 0C557.3 0 535.7 0 514.2 0C492.7 0 471.3 0 450 0C428.7 0 407.3 0 385.8 0C364.3 0 342.7 0 321.2 0C299.7 0 278.3 0 257 0C235.7 0 214.3 0 193 0C171.7 0 150.3 0 128.8 0C107.3 0 85.7 0 64.2 0C42.7 0 21.3 0 10.7 0L0 0Z" fill="#4c7099"></path><path d="M0 277L10.7 274C21.3 271 42.7 265 64.2 267C85.7 269 107.3 279 128.8 274C150.3 269 171.7 249 193 240C214.3 231 235.7 233 257 237C278.3 241 299.7 247 321.2 254C342.7 261 364.3 269 385.8 271C407.3 273 428.7 269 450 269C471.3 269 492.7 273 514.2 265C535.7 257 557.3 237 578.8 231C600.3 225 621.7 233 643 237C664.3 241 685.7 241 707 248C728.3 255 749.7 269 771.2 268C792.7 267 814.3 251 835.8 252C857.3 253 878.7 271 889.3 280L900 289L900 191L889.3 187C878.7 183 857.3 175 835.8 174C814.3 173 792.7 179 771.2 177C749.7 175 728.3 165 707 163C685.7 161 664.3 167 643 164C621.7 161 600.3 149 578.8 152C557.3 155 535.7 173 514.2 179C492.7 185 471.3 179 450 179C428.7 179 407.3 185 385.8 183C364.3 181 342.7 171 321.2 167C299.7 163 278.3 165 257 162C235.7 159 214.3 151 193 155C171.7 159 150.3 175 128.8 182C107.3 189 85.7 187 64.2 190C42.7 193 21.3 201 10.7 205L0 209Z" fill="#385e87"></path><path d="M0 415L10.7 411C21.3 407 42.7 399 64.2 405C85.7 411 107.3 431 128.8 435C150.3 439 171.7 427 193 421C214.3 415 235.7 415 257 418C278.3 421 299.7 427 321.2 430C342.7 433 364.3 433 385.8 434C407.3 435 428.7 437 450 436C471.3 435 492.7 431 514.2 426C535.7 421 557.3 415 578.8 412C600.3 409 621.7 409 643 412C664.3 415 685.7 421 707 424C728.3 427 749.7 427 771.2 428C792.7 429 814.3 431 835.8 430C857.3 429 878.7 425 889.3 423L900 421L900 287L889.3 278C878.7 269 857.3 251 835.8 250C814.3 249 792.7 265 771.2 266C749.7 267 728.3 253 707 246C685.7 239 664.3 239 643 235C621.7 231 600.3 223 578.8 229C557.3 235 535.7 255 514.2 263C492.7 271 471.3 267 450 267C428.7 267 407.3 271 385.8 269C364.3 267 342.7 259 321.2 252C299.7 245 278.3 239 257 235C235.7 231 214.3 229 193 238C171.7 247 150.3 267 128.8 272C107.3 277 85.7 267 64.2 265C42.7 263 21.3 269 10.7 272L0 275Z" fill="#234c76"></path><path d="M0 487L10.7 485C21.3 483 42.7 479 64.2 484C85.7 489 107.3 503 128.8 503C150.3 503 171.7 489 193 483C214.3 477 235.7 479 257 484C278.3 489 299.7 497 321.2 500C342.7 503 364.3 501 385.8 502C407.3 503 428.7 507 450 508C471.3 509 492.7 507 514.2 502C535.7 497 557.3 489 578.8 486C600.3 483 621.7 485 643 487C664.3 489 685.7 491 707 495C728.3 499 749.7 505 771.2 506C792.7 507 814.3 503 835.8 499C857.3 495 878.7 491 889.3 489L900 487L900 419L889.3 421C878.7 423 857.3 427 835.8 428C814.3 429 792.7 427 771.2 426C749.7 425 728.3 425 707 422C685.7 419 664.3 413 643 410C621.7 407 600.3 407 578.8 410C557.3 413 535.7 419 514.2 424C492.7 429 471.3 433 450 434C428.7 435 407.3 433 385.8 432C364.3 431 342.7 431 321.2 428C299.7 425 278.3 419 257 416C235.7 413 214.3 413 193 419C171.7 425 150.3 437 128.8 433C107.3 429 85.7 409 64.2 403C42.7 397 21.3 405 10.7 409L0 413Z" fill="#1e4266"></path><path d="M0 601L10.7 601C21.3 601 42.7 601 64.2 601C85.7 601 107.3 601 128.8 601C150.3 601 171.7 601 193 601C214.3 601 235.7 601 257 601C278.3 601 299.7 601 321.2 601C342.7 601 364.3 601 385.8 601C407.3 601 428.7 601 450 601C471.3 601 492.7 601 514.2 601C535.7 601 557.3 601 578.8 601C600.3 601 621.7 601 643 601C664.3 601 685.7 601 707 601C728.3 601 749.7 601 771.2 601C792.7 601 814.3 601 835.8 601C857.3 601 878.7 601 889.3 601L900 601L900 485L889.3 487C878.7 489 857.3 493 835.8 497C814.3 501 792.7 505 771.2 504C749.7 503 728.3 497 707 493C685.7 489 664.3 487 643 485C621.7 483 600.3 481 578.8 484C557.3 487 535.7 495 514.2 500C492.7 505 471.3 507 450 506C428.7 505 407.3 501 385.8 500C364.3 499 342.7 501 321.2 498C299.7 495 278.3 487 257 482C235.7 477 214.3 475 193 481C171.7 487 150.3 501 128.8 501C107.3 501 85.7 487 64.2 482C42.7 477 21.3 481 10.7 483L0 485Z" fill="#1a3857"></path></svg>